<svg version="1.1" xmlns="http://www.w3.org/2000/svg" viewBox="0 0 1040.1724386724386 545.8181818181824" width="1040.1724386724386" height="545.8181818181824">
  <!-- svg-source:excalidraw -->
  
  <defs>
    <style class="style-fonts">
      @font-face {
        font-family: "Virgil";
        src: url("https://excalidraw.com/Virgil.woff2");
      }
      @font-face {
        font-family: "Cascadia";
        src: url("https://excalidraw.com/Cascadia.woff2");
      }
    </style>
  </defs>
  <g transform="translate(866.1724386724386 338.3636363636364) rotate(0 82 22)"><text x="0" y="31" font-family="Virgil, Segoe UI Emoji" font-size="34.92063492063489px" fill="#ffffff" text-anchor="start" style="white-space: pre;" direction="ltr">ViewTable</text></g><g transform="translate(312.5 10) rotate(0 41.5 31.5)"><text x="0" y="44" font-family="Virgil, Segoe UI Emoji" font-size="49.99999999999997px" fill="#ffffff" text-anchor="start" style="white-space: pre;" direction="ltr">App</text></g><g transform="translate(10 150.75) rotate(0 94.5 24)"><text x="0" y="34" font-family="Virgil, Segoe UI Emoji" font-size="37.95180722891566px" fill="#ffffff" text-anchor="start" style="white-space: pre;" direction="ltr">AppHeader</text></g><g transform="translate(396 143.75) rotate(0 78 22)"><text x="0" y="31" font-family="Virgil, Segoe UI Emoji" font-size="34.92063492063489px" fill="#ffffff" text-anchor="start" style="white-space: pre;" direction="ltr">MainBody</text></g><g stroke-linecap="round"><g transform="translate(301.5 46) rotate(0 -89.25956480241848 46.12385523571633)"><path d="M0.66 1.03 C-29.15 16.3, -148.19 75.58, -178.15 90.81 M-0.46 0.52 C-30.5 15.96, -149.78 76.77, -179.18 91.73" stroke="#ffffff" stroke-width="1" fill="none"></path></g><g transform="translate(301.5 46) rotate(0 -89.25956480241848 46.12385523571633)"><path d="M-157.01 69.54 C-168.17 75.9, -172.82 87.53, -180.71 92.58 M-158.14 68.8 C-165.8 76.9, -170.62 82.23, -178.76 91.01" stroke="#ffffff" stroke-width="1" fill="none"></path></g><g transform="translate(301.5 46) rotate(0 -89.25956480241848 46.12385523571633)"><path d="M-147.69 87.82 C-162.07 87.68, -170.05 92.76, -180.71 92.58 M-148.82 87.08 C-159.37 89.54, -167.05 89.27, -178.76 91.01" stroke="#ffffff" stroke-width="1" fill="none"></path></g></g><mask></mask><g stroke-linecap="round"><g transform="translate(406.5 49) rotate(0 24.469622301240463 44.26810317784082)"><path d="M0.82 0.49 C9.05 15.27, 41.37 74.36, 49.14 88.84 M-0.21 -0.3 C7.99 14.13, 41.02 72.38, 48.8 87.16" stroke="#ffffff" stroke-width="1" fill="none"></path></g><g transform="translate(406.5 49) rotate(0 24.469622301240463 44.26810317784082)"><path d="M27.04 69.3 C33.99 71.96, 37.89 76.56, 48.34 85.93 M26.96 66.91 C31.4 72.23, 36.35 77.07, 48.81 86.54" stroke="#ffffff" stroke-width="1" fill="none"></path></g><g transform="translate(406.5 49) rotate(0 24.469622301240463 44.26810317784082)"><path d="M45.02 59.42 C46.94 64.97, 45.79 72.35, 48.34 85.93 M44.95 57.02 C44.99 64.59, 45.62 71.81, 48.81 86.54" stroke="#ffffff" stroke-width="1" fill="none"></path></g></g><mask></mask><g transform="translate(287.9906204906205 329.9090909090909) rotate(0 108 22)"><text x="0" y="31" font-family="Virgil, Segoe UI Emoji" font-size="34.92063492063489px" fill="#ffffff" text-anchor="start" style="white-space: pre;" direction="ltr">ViewHeatMap</text></g><g transform="translate(553.6269841269841 336) rotate(0 108 22)"><text x="0" y="31" font-family="Virgil, Segoe UI Emoji" font-size="34.92063492063489px" fill="#ffffff" text-anchor="start" style="white-space: pre;" direction="ltr">ViewCalendar</text></g><g stroke-linecap="round"><g transform="translate(400.2448079963342 194) rotate(0 -14.118951859992137 61.39178879485422)"><path d="M0.17 0.46 C-4.32 20.95, -23.24 102.62, -28.04 123.13 M-1.2 -0.35 C-5.65 19.74, -23.75 100.82, -28.41 121.12" stroke="#ffffff" stroke-width="1" fill="none"></path></g><g transform="translate(400.2448079963342 194) rotate(0 -14.118951859992137 61.39178879485422)"><path d="M-31.44 93.21 C-31.01 98.32, -29.61 103.98, -28.82 121.26 M-32.18 90.53 C-31.69 100.64, -29.31 112.3, -29.38 122.04" stroke="#ffffff" stroke-width="1" fill="none"></path></g><g transform="translate(400.2448079963342 194) rotate(0 -14.118951859992137 61.39178879485422)"><path d="M-11.42 97.73 C-15.14 101.94, -17.88 106.66, -28.82 121.26 M-12.16 95.05 C-18.47 103.76, -22.88 113.88, -29.38 122.04" stroke="#ffffff" stroke-width="1" fill="none"></path></g></g><mask></mask><g stroke-linecap="round"><g transform="translate(528.4251495372769 196) rotate(0 36.55084735374038 55.75700042500161)"><path d="M-0.15 0.35 C12.49 18.95, 62.24 92.57, 74.78 111.01 M-1.68 -0.51 C10.96 18.25, 61.45 93.32, 74.21 112.02" stroke="#ffffff" stroke-width="1" fill="none"></path></g><g transform="translate(528.4251495372769 196) rotate(0 36.55084735374038 55.75700042500161)"><path d="M50.5 95.61 C53.31 99.89, 58.36 101.08, 74.05 113.59 M50.28 94.72 C57.81 101.15, 65.6 106.2, 74.95 111.51" stroke="#ffffff" stroke-width="1" fill="none"></path></g><g transform="translate(528.4251495372769 196) rotate(0 36.55084735374038 55.75700042500161)"><path d="M67.5 84.11 C66.66 90.8, 68.11 94.43, 74.05 113.59 M67.28 83.22 C68.99 93.63, 71.05 102.55, 74.95 111.51" stroke="#ffffff" stroke-width="1" fill="none"></path></g></g><mask></mask><g stroke-linecap="round"><g transform="translate(561.5 175.45699905514664) rotate(0 155.72208060237318 76.77850527592243)"><path d="M-0.49 1.18 C51.7 26.76, 260.21 127.56, 311.93 152.8 M1.46 0.76 C53.69 26.06, 259.79 126.13, 311.59 151.09" stroke="#ffffff" stroke-width="1" fill="none"></path></g><g transform="translate(561.5 175.45699905514664) rotate(0 155.72208060237318 76.77850527592243)"><path d="M283.72 149.98 C289.14 147.22, 294.85 150.87, 312.05 151.05 M282.08 147.39 C290.43 148.74, 298.07 150.59, 311.18 151.33" stroke="#ffffff" stroke-width="1" fill="none"></path></g><g transform="translate(561.5 175.45699905514664) rotate(0 155.72208060237318 76.77850527592243)"><path d="M292.66 131.5 C296.16 132.47, 300.05 139.89, 312.05 151.05 M291.02 128.92 C296.76 135.3, 301.93 142.25, 311.18 151.33" stroke="#ffffff" stroke-width="1" fill="none"></path></g></g><mask></mask><g transform="translate(24.5 338) rotate(0 72 22)"><text x="0" y="31" font-family="Virgil, Segoe UI Emoji" font-size="34.92063492063489px" fill="#ffffff" text-anchor="start" style="white-space: pre;" direction="ltr">ViewForm</text></g><g stroke-linecap="round"><g transform="translate(387.5 162.53388786644825) rotate(0 -110.36577779374551 77.38317417724915)"><path d="M-0.58 0.63 C-37.62 26.5, -185.49 129.29, -222.05 154.86 M1.32 -0.09 C-35.38 25.45, -182.98 127.08, -219.89 152.94" stroke="#ffffff" stroke-width="1" fill="none"></path></g><g transform="translate(387.5 162.53388786644825) rotate(0 -110.36577779374551 77.38317417724915)"><path d="M-201.53 126.69 C-207.46 137.82, -214.32 144.27, -220.93 152.99 M-203.48 129.36 C-207.08 134.99, -212.9 141.77, -220.05 153.23" stroke="#ffffff" stroke-width="1" fill="none"></path></g><g transform="translate(387.5 162.53388786644825) rotate(0 -110.36577779374551 77.38317417724915)"><path d="M-189.83 143.55 C-199.39 149.32, -209.94 150.46, -220.93 152.99 M-191.78 146.22 C-198.67 147.07, -207.78 149.11, -220.05 153.23" stroke="#ffffff" stroke-width="1" fill="none"></path></g></g><mask></mask><g transform="translate(278.82323232323324 491.8181818181824) rotate(0 82 22)"><text x="0" y="31" font-family="Virgil, Segoe UI Emoji" font-size="34.92063492063489px" fill="#ffffff" text-anchor="start" style="white-space: pre;" direction="ltr">ViewPopup</text></g><g stroke-linecap="round"><g transform="translate(374.73280392442564 383.33548393241915) rotate(0 -11.563752347878506 50.86499725048007)"><path d="M0.14 0.78 C-3.52 17.41, -18.64 83.63, -22.17 100.4 M-1.24 0.15 C-5.08 16.86, -19.93 85.06, -23.27 101.58" stroke="#ffffff" stroke-width="1" fill="none"></path></g><g transform="translate(374.73280392442564 383.33548393241915) rotate(0 -11.563752347878506 50.86499725048007)"><path d="M-26.17 71.38 C-27.25 81.85, -24.32 90.32, -22.92 102.2 M-26.71 72.74 C-26.64 83.46, -23.62 94.46, -22.38 102.47" stroke="#ffffff" stroke-width="1" fill="none"></path></g><g transform="translate(374.73280392442564 383.33548393241915) rotate(0 -11.563752347878506 50.86499725048007)"><path d="M-6.09 75.63 C-12.96 84.9, -15.8 92.15, -22.92 102.2 M-6.64 76.99 C-14.13 86.25, -18.69 95.65, -22.38 102.47" stroke="#ffffff" stroke-width="1" fill="none"></path></g></g><mask></mask></svg>